<svg version="1.1" xmlns="http://www.w3.org/2000/svg" xmlns:xlink="http://www.w3.org/1999/xlink" width="1280" height="1280" viewBox="0,0,256,256"><g fill="#ffffff" fill-rule="nonzero" stroke="none" stroke-width="1" stroke-linecap="butt" stroke-linejoin="miter" stroke-miterlimit="10" stroke-dasharray="" stroke-dashoffset="0" font-family="none" font-weight="none" font-size="none" text-anchor="none" style="mix-blend-mode: normal"><g transform="translate(5.11444,4.80209) scale(0.16,0.16)"><path transform="translate(449,744)" d="M0,0h95v3h3v15c1.32,0.33 2.64,0.66 4,1v18h3c1.17,7.34 1.09,14.6 1,22h3c0.33,7.59 0.66,15.2 1,23h3c0.33,8.91 0.66,17.8 1,27h3v23h3c0.832,5.04 1.11,9.81 1.06,14.9c-0.00451,0.684 -0.00902,1.37 -0.0137,2.07c-0.0116,1.66 -0.0296,3.33 -0.0488,4.99h3c0.69,9.02 1.15,17.9 1,27h3c0.33,7.59 0.66,15.2 1,23h3v26h3c0.941,2.82 1.12,4.53 1.1,7.45c-0.00322,0.848 -0.00645,1.7 -0.00977,2.57c-0.00838,0.881 -0.0168,1.76 -0.0254,2.67c-0.00451,0.893 -0.00902,1.79 -0.0137,2.71c-0.0118,2.2 -0.0282,4.4 -0.0488,6.61h3c0.752,7.69 1.14,15.3 1,23h3c0.33,9.9 0.66,19.8 1,30h3c0.33,7.59 0.66,15.2 1,23h3v23h3c0.942,5.53 1.12,10.8 1.06,16.4c-0.00451,0.827 -0.00902,1.65 -0.0137,2.51c-0.0117,2.02 -0.0296,4.04 -0.0488,6.06h3c0.33,7.92 0.66,15.8 1,24h3c0.33,8.58 0.66,17.2 1,26h3v22c1.32,0.33 2.64,0.66 4,1v22h3c0.657,8.69 1.16,17.3 1,26h3c0.33,7.92 0.66,15.8 1,24h3c0.33,8.25 0.66,16.5 1,25h3v23h3v4h8v3h19v-3h15v3h222v-3h8c-0.00524,-0.583 -0.0105,-1.17 -0.0159,-1.77c-0.0942,-12.1 0.0457,-24.1 1.02,-36.2h3c-0.00524,-0.625 -0.0105,-1.25 -0.0159,-1.89c-0.021,-2.87 -0.0339,-5.74 -0.0466,-8.61c-0.00838,-0.982 -0.0168,-1.96 -0.0254,-2.98c-0.0187,-5.61 0.249,-11 1.09,-16.5h3v-23h3c0.33,-7.26 0.66,-14.5 1,-22h3c0.33,-8.91 0.66,-17.8 1,-27h3c-0.0116,-1.13 -0.0232,-2.25 -0.0352,-3.41c-0.0695,-9.92 0.219,-19.7 1.04,-29.6h3v-23c0.99,-0.33 1.98,-0.66 3,-1c0.33,-7.26 0.66,-14.5 1,-22h3c0.33,-8.58 0.66,-17.2 1,-26h3c-0.0116,-0.611 -0.0232,-1.22 -0.0352,-1.85c-0.106,-10.7 0.497,-21.4 1.04,-32.1h3c-0.00524,-0.555 -0.0105,-1.11 -0.0159,-1.68c-0.0208,-2.52 -0.0338,-5.05 -0.0466,-7.57c-0.00838,-0.873 -0.0168,-1.75 -0.0254,-2.64c-0.00322,-0.844 -0.00645,-1.69 -0.00977,-2.56c-0.00524,-0.775 -0.0105,-1.55 -0.0159,-2.35c0.113,-2.19 0.508,-4.09 1.11,-6.2h3v-23h3c0.33,-8.58 0.66,-17.2 1,-26h3c0.33,-11.2 0.66,-22.4 1,-34h3l-0.0352,-2.89c-0.0542,-7.77 0.135,-15.4 1.04,-23.1h3v-19h3c0.33,-8.91 0.66,-17.8 1,-27h3c0.33,-11.2 0.66,-22.4 1,-34h3c0.33,-7.26 0.66,-14.5 1,-22h3c-0.00524,-0.555 -0.0105,-1.11 -0.0159,-1.68c-0.0208,-2.52 -0.0338,-5.05 -0.0466,-7.57c-0.00838,-0.873 -0.0168,-1.75 -0.0254,-2.64c-0.00322,-0.844 -0.00645,-1.69 -0.00977,-2.56c-0.00524,-0.775 -0.0105,-1.55 -0.0159,-2.35c0.113,-2.19 0.508,-4.09 1.11,-6.2h3v-26c1.48,-0.495 1.48,-0.495 3,-1c0.33,-2.31 0.66,-4.62 1,-7h3v-3h19v3h4v-3h68v3c0.923,-0.00524 1.85,-0.0105 2.8,-0.0159c3.43,-0.017 6.85,-0.0296 10.3,-0.0391c1.48,-0.00503 2.97,-0.0119 4.45,-0.0205c2.13,-0.0121 4.26,-0.0178 6.4,-0.0222c1.28,-0.00524 2.57,-0.0105 3.89,-0.0159c3.19,0.114 3.19,0.114 6.19,1.11v3h15v3c5.44,0.495 5.44,0.495 11,1c0.33,0.99 0.66,1.98 1,3c2.31,0.33 4.62,0.66 7,1v3c2.31,0.33 4.62,0.66 7,1v3h8v4h4v4h4v3h3v4h4v4h4v4h4v4h3v3h4v4h4v8h4v7h3v4h4v8h4v11h4v15h3c0.832,5.04 1.11,9.81 1.06,14.9c-0.00451,0.684 -0.00902,1.37 -0.0137,2.07c-0.0116,1.66 -0.0296,3.33 -0.0488,4.99h3v491h-3c0.0174,0.982 0.0174,0.982 0.0352,1.98c0.0698,7.06 -0.349,14 -1.04,21h-3v14c-1.32,0.33 -2.64,0.66 -4,1v11h-4v8h-4v7h-3v4h-4v7h-4v4h-3v4h-4v4h-4c-0.33,2.31 -0.66,4.62 -1,7c-1.98,0.33 -3.96,0.66 -6,1v3h-4v4h-4c-0.33,1.32 -0.66,2.64 -1,4h-3v3c-2.31,0.33 -4.62,0.66 -7,1c-0.33,0.99 -0.66,1.98 -1,3h-7v4h-8v3c-2.75,0.917 -4.36,1.11 -7.19,1.06c-1.26,-0.0206 -2.52,-0.0412 -3.81,-0.0625v3c-4.95,0.33 -9.9,0.66 -15,1v3c-15,0.628 -30,1.18 -45,1v3h-95v-3h-381v3h-158v-3c-7.59,-0.33 -15.2,-0.66 -23,-1v-3c-4.95,-0.33 -9.9,-0.66 -15,-1v-3h-7c-0.33,-1.32 -0.66,-2.64 -1,-4h-7c-0.495,-1.49 -0.495,-1.49 -1,-3c-2.31,-0.33 -4.62,-0.66 -7,-1v-4h-4v-3c-2.31,-0.33 -4.62,-0.66 -7,-1v-3h-4v-4h-4v-4h-3v-3h-4v-4h-4v-4h-4v-4h-3v-4h-4v-7h-4v-4h-3l-1,-8h-3v-7h-4v-11h-4v-15h-3c-0.842,-2.92 -1.12,-5.51 -1.1,-8.55c0.00483,-1.27 0.00483,-1.27 0.00977,-2.56c0.00838,-0.873 0.0168,-1.75 0.0254,-2.64c0.00451,-0.888 0.00902,-1.78 0.0137,-2.69c0.0118,-2.19 0.0282,-4.37 0.0488,-6.56h-3v-494h3c-0.0116,-0.785 -0.0232,-1.57 -0.0352,-2.38c-0.0486,-5.66 0.0222,-11 1.04,-16.6h3v-15h4v-8h3c0.33,-3.63 0.66,-7.26 1,-11h3c0.33,-1.32 0.66,-2.64 1,-4h3v-7c1.49,-0.495 1.49,-0.495 3,-1c0.33,-2.31 0.66,-4.62 1,-7h4v-4h4v-4h3v-3h4v-4c0.99,-0.33 1.98,-0.66 3,-1c0.33,-0.99 0.66,-1.98 1,-3h3c0.33,-1.32 0.66,-2.64 1,-4h3v-3h4v-4c2.31,-0.33 4.62,-0.66 7,-1v-3h5v-3c2.31,-0.33 4.62,-0.66 7,-1v-3c3.47,-0.495 3.47,-0.495 7,-1c0.33,-0.99 0.66,-1.98 1,-3h7v-4h15v-4h34v-3z"></path><path transform="translate(495,313)" d="M0,0c51.3,-0.0171 103,-0.033 154,-0.0423c0.759,-0.00014 1.52,-0.00028 2.3,-0.00042c16.5,-0.00299 33,-0.00576 49.5,-0.0083c8.09,-0.00125 16.2,-0.00254 24.3,-0.00387c0.805,-0.00013 1.61,-0.00026 2.44,-0.0004c26.1,-0.00426 52.2,-0.0118 78.3,-0.021c26.8,-0.00943 53.6,-0.0156 80.4,-0.0176c3.79,-0.00029 7.57,-0.00061 11.4,-0.00096c1.12,-0.0001 1.12,-0.0001 2.26,-0.0002c12,-0.00118 24,-0.00582 36,-0.0118c12.1,-0.00588 24.1,-0.00814 36.2,-0.00667c6.54,0.00069 13.1,-0.00036 19.6,-0.0057c5.98,-0.00485 12,-0.00512 17.9,-0.00169c2.17,0.00042 4.33,-0.00086 6.5,-0.00398c2.94,-0.004 5.88,-0.00186 8.82,0.00184c0.846,-0.00263 1.69,-0.00525 2.56,-0.00796c4.68,0.0133 9.1,0.353 13.7,1.13v3h4c0.33,8.91 0.66,17.8 1,27h3v29h3c0.954,3.21 1.12,6.08 1.1,9.42c-0.00322,1.02 -0.00645,2.05 -0.00977,3.11c-0.00838,1.06 -0.0168,2.13 -0.0254,3.22c-0.00451,1.08 -0.00902,2.16 -0.0137,3.27c-0.0118,2.66 -0.0282,5.32 -0.0488,7.98h3v7h-3c0.00524,0.781 0.0105,1.56 0.0159,2.37c0.0209,3.57 0.0338,7.13 0.0466,10.7c0.00838,1.23 0.0168,2.46 0.0254,3.72c0.0157,5.84 -0.0032,11.5 -1.09,17.2h-3v34c-0.99,0.33 -1.98,0.66 -3,1c-0.33,3.63 -0.66,7.26 -1,11h-3c-0.33,3.63 -0.66,7.26 -1,11h-3c0.0309,1.61 0.0309,1.61 0.0625,3.25c-0.0483,2.9 -0.194,5.04 -1.06,7.75h-3v8h-4v11h-4v4h-3l-1,11h-3v4h-4v8h-4v7h-4v4h-3c-0.33,2.31 -0.66,4.62 -1,7h-3v4h-4v4c-0.99,0.33 -1.98,0.66 -3,1c-0.33,1.98 -0.66,3.96 -1,6c-0.99,0.33 -1.98,0.66 -3,1c-0.33,0.99 -0.66,1.98 -1,3h-3v4h-4v4h-4v4h-3c-0.33,1.32 -0.66,2.64 -1,4h-3v3h-4v4h-4v4h-4v3h-3v4h-4v4h-7v4h-4c-0.33,1.32 -0.66,2.64 -1,4h-4v3c-2.31,0.33 -4.62,0.66 -7,1v3c-0.99,0.33 -1.98,0.66 -3,1c-0.33,0.99 -0.66,1.98 -1,3h-7v4h-4v3c-2.31,0.33 -4.62,0.66 -7,1c-0.33,0.99 -0.66,1.98 -1,3h-7v4h-8v3c-2.31,0.33 -4.62,0.66 -7,1v3c-3.63,0.33 -7.26,0.66 -11,1v3c-3.96,0.33 -7.92,0.66 -12,1v3h-11v4h-15v3c-3.87,1.27 -7.73,1.11 -11.8,1.06c-0.697,-0.00451 -1.39,-0.00902 -2.11,-0.0137c-1.71,-0.0117 -3.42,-0.0297 -5.14,-0.0488v3c-19,1.16 -38,1.11 -57,1v3h-3v-3c-0.935,0.0116 -1.87,0.0232 -2.83,0.0352c-10.8,0.0739 -21.4,-0.382 -32.2,-1.04v-3c-1.01,0.0116 -2.03,0.0232 -3.07,0.0352c-1.35,0.00939 -2.7,0.0185 -4.05,0.0273c-0.665,0.00838 -1.33,0.0168 -2.02,0.0254c-4.07,0.0199 -7.87,-0.299 -11.9,-1.09v-3h-16v-4h-11v-4h-8v-3c-2.64,-0.33 -5.28,-0.66 -8,-1v-3h-10c-0.33,-0.99 -0.66,-1.98 -1,-3c-2.31,-0.33 -4.62,-0.66 -7,-1v-4h-7c-0.33,-0.99 -0.66,-1.98 -1,-3c-2.02,-0.733 -2.02,-0.733 -4,-1v-3h-7v-4h-7v-4h-5v-3c-2.31,-0.33 -4.62,-0.66 -7,-1v-3c-1.32,-0.33 -2.64,-0.66 -4,-1v-3h-4v-4h-7v-4h-4v-4h-3v-3h-4v-4h-4v-4h-4v-4h-4v-3h-3v-4h-4v-4h-4v-4h-3c-0.495,-3.47 -0.495,-3.47 -1,-7h-4v-4h-3v-4h-4v-4h-4v-7h-3c-0.33,-0.99 -0.66,-1.98 -1,-3c-0.99,-0.33 -1.98,-0.66 -3,-1v-7h-4c-0.495,-3.47 -0.495,-3.47 -1,-7c-0.99,-0.33 -1.98,-0.66 -3,-1v-4h-3c-0.33,-2.64 -0.66,-5.28 -1,-8h-3c-0.33,-3.3 -0.66,-6.6 -1,-10h-3v-8h-4v-8h-4v-11h-3c-1.18,-3.67 -1.07,-7.17 -1,-11h-3c-0.33,-4.95 -0.66,-9.9 -1,-15h-3c-0.33,-9.9 -0.66,-19.8 -1,-30c-0.66,-0.33 -1.32,-0.66 -2,-1c-1.02,-3.06 -1.12,-5.12 -1.1,-8.32c0.00483,-1.54 0.00483,-1.54 0.00977,-3.12c0.00838,-1.07 0.0168,-2.14 0.0254,-3.25c0.00451,-1.08 0.00902,-2.17 0.0137,-3.28c0.0118,-2.68 0.0282,-5.35 0.0488,-8.03h-3v-19h3v-22c1.49,-0.495 1.49,-0.495 3,-1c0.33,-8.58 0.66,-17.2 1,-26h3c-0.0116,-0.574 -0.0232,-1.15 -0.0352,-1.74c-0.1,-9.44 0.488,-18.8 1.04,-28.3h3c0.33,-1.32 0.66,-2.64 1,-4z"></path><path transform="translate(657,42)" d="M0,0h226v3c1.07,-0.0206 2.14,-0.0412 3.25,-0.0625c2.9,0.0483 5.04,0.194 7.75,1.06v3h12v4h11v4h8v3c3.63,0.33 7.26,0.66 11,1v3h7c0.33,0.99 0.66,1.98 1,3c3.3,0.33 6.6,0.66 10,1c0.33,0.99 0.66,1.98 1,3l8,1v3c3.3,0.33 6.6,0.66 10,1v3l8,1v3h8v3l11,1v4h8v3c3.3,0.33 6.6,0.66 10,1v3h8v4h11c0.33,0.99 0.66,1.98 1,3c2.31,0.33 4.62,0.66 7,1v4h8v3h7v4h8v3c2.31,0.33 4.62,0.66 7,1c0.33,0.99 0.66,1.98 1,3c2.31,0.33 4.62,0.66 7,1v4h4v3h3c0.33,0.99 0.66,1.98 1,3c0.99,0.33 1.98,0.66 3,1c0.33,2.31 0.66,4.62 1,7c0.99,0.33 1.98,0.66 3,1v18h-3c-0.33,6.6 -0.66,13.2 -1,20h-3c-0.33,3.63 -0.66,7.26 -1,11h-3c0.0309,1.64 0.0309,1.64 0.0625,3.31c-0.0625,3.69 -0.0625,3.69 -1.06,6.69h-3v8c-0.99,0.33 -1.98,0.66 -3,1c-0.33,2.31 -0.66,4.62 -1,7h-3c-0.33,3.63 -0.66,7.26 -1,11h-3c-0.33,2.31 -0.66,4.62 -1,7h-3c-0.33,2.64 -0.66,5.28 -1,8h-3v4h-4v4h-3c-0.33,1.32 -0.66,2.64 -1,4h-3v3h-4v4h-4v4h-30v3h-505v-3h-19v-4h-4c-0.33,-0.99 -0.66,-1.98 -1,-3c-0.99,-0.33 -1.98,-0.66 -3,-1v-3c-1.32,-0.33 -2.64,-0.66 -4,-1v-3h-3c-0.33,-0.99 -0.66,-1.98 -1,-3c-0.99,-0.33 -1.98,-0.66 -3,-1v-4h-4v-7l-4,-1v-7h-3c-0.33,-2.31 -0.66,-4.62 -1,-7c-0.99,-0.33 -1.98,-0.66 -3,-1c-0.33,-3.3 -0.66,-6.6 -1,-10h-3v-9h-3c-1.28,-3.85 -1.07,-6.95 -1,-11h-3c-1.18,-3.67 -1.07,-7.17 -1,-11h-3c-0.33,-5.94 -0.66,-11.9 -1,-18h-3v-19h3c0.33,-2.64 0.66,-5.28 1,-8h3v-4h4c0.33,-1.32 0.66,-2.64 1,-4h3v-3c3.46,-0.495 3.46,-0.495 7,-1v-3h8v-4h8v-4h7v-3c2.31,-0.33 4.62,-0.66 7,-1l1,-3h11v-4h8v-4h10v-3c2.64,-0.33 5.28,-0.66 8,-1v-3h8v-4h11v-4h8v-3c2.64,-0.33 5.28,-0.66 8,-1v-3c3.3,-0.33 6.6,-0.66 10,-1v-3h8v-4h11v-4h8v-3c2.64,-0.33 5.28,-0.66 8,-1v-3c3.63,-0.33 7.26,-0.66 11,-1v-3h11v-4h12v-3c3.31,-1 6.3,-1.1 9.75,-1.06c0.985,0.00902 1.97,0.018 2.98,0.0273c1.12,0.0174 1.12,0.0174 2.27,0.0352v-3zM-27,90v4h-4v4h-3v14h3v8h4v4h4v4h3c0.33,1.32 0.66,2.64 1,4h3c0.33,1.32 0.66,2.64 1,4h3c0.33,1.32 0.66,2.64 1,4h3v6c1.32,0.33 2.64,0.66 4,1v4h3c0.495,1.98 0.495,1.98 1,4h3v6c1.32,0.33 2.64,0.66 4,1v3c2.64,0.33 5.28,0.66 8,1v3c4.95,0.806 9.66,1.14 14.7,1.12c1.28,0.00258 2.57,0.00516 3.89,0.00781c2.71,-0.105 4.87,-0.317 7.43,-1.13v-3c3.47,-0.495 3.47,-0.495 7,-1c0.33,-2.31 0.66,-4.62 1,-7h3c1.18,-3.67 1.07,-7.17 1,-11h3c0.33,-5.28 0.66,-10.6 1,-16h3v-10c2.31,-0.33 4.62,-0.66 7,-1v4h4v4h4v7c1.49,0.495 1.49,0.495 3,1l1,7h3l1,8h3v7h4v4h4v4h4v3c9.73,1.05 19.3,1.72 29,0c0.33,-0.99 0.66,-1.98 1,-3c2.06,-0.688 2.06,-0.688 4,-1v-3h3c0.33,-2.64 0.66,-5.28 1,-8h3c0.33,-2.31 0.66,-4.62 1,-7h3v-15h4v-8h4v-4h7v4c0.99,0.33 1.98,0.66 3,1c0.33,5.61 0.66,11.2 1,17h3c0.33,2.97 0.66,5.94 1,9h3l-0.0625,3.25c0.0483,2.9 0.194,5.04 1.06,7.75h3v4h7v3h20v-3l5.96,0.0977c2.25,-0.015 2.25,-0.015 5.04,-1.1v-3h4v-4h4v-3c1.32,-0.33 2.64,-0.66 4,-1v-3h3v-4h4v-4h4v-4h3c0.33,-0.99 0.66,-1.98 1,-3l3,-1v-7h4v-4h4v-8h3c0.33,-2.31 0.66,-4.62 1,-7h3v-15c-2.31,-0.33 -4.62,-0.66 -7,-1v-3h-30c-0.33,2.31 -0.66,4.62 -1,7h-3c-1.06,7.69 -1.1,15.2 -1,23h-3v7h-4v4c-1.32,0.33 -2.64,0.66 -4,1v3h-3v4h-8v-4h-3c-0.33,-1.32 -0.66,-2.64 -1,-4h-3c-0.33,-2.31 -0.66,-4.62 -1,-7h-3v-8h-4v-14c-0.99,-0.33 -1.98,-0.66 -3,-1c-0.33,-2.31 -0.66,-4.62 -1,-7c-2.31,-0.33 -4.62,-0.66 -7,-1v-3h-23v3c-2.64,0.33 -5.28,0.66 -8,1v7h-3c-1.33,3.98 -1.07,7.85 -1,12h-3v11h-4v4h-3c-0.33,2.31 -0.66,4.62 -1,7h-4v4h-7v-3c-0.99,-0.33 -1.98,-0.66 -3,-1c-0.33,-0.99 -0.66,-1.98 -1,-3c-0.99,-0.33 -1.98,-0.66 -3,-1c-0.33,-0.99 -0.66,-1.98 -1,-3h-3v-4h-4c0.0174,-1.25 0.0174,-1.25 0.0352,-2.52c0.00902,-1.09 0.018,-2.17 0.0273,-3.29c0.0174,-1.62 0.0174,-1.62 0.0352,-3.27c0.0386,-2.98 0.0386,-2.98 -1.1,-5.92c-0.66,-0.33 -1.32,-0.66 -2,-1c-0.414,-3.16 -0.414,-3.16 -0.625,-7.06c-0.112,-1.94 -0.112,-1.94 -0.227,-3.91c-0.049,-0.999 -0.098,-2 -0.148,-3.03c-3.73,-1.05 -7.13,-1.07 -11,-1v-3h-23v3c-2.31,0.33 -4.62,0.66 -7,1c-1,3.31 -1.1,6.3 -1.06,9.75c0.00902,0.985 0.018,1.97 0.0273,2.98c0.0116,0.748 0.0232,1.5 0.0352,2.27h-3v11h-4v7c-1.32,0.33 -2.64,0.66 -4,1v3c-1.32,0.33 -2.64,0.66 -4,1v3h-18v-4h-4v-7h-3v-19h2v-4h-2c-0.495,-3.96 -0.495,-3.96 -1,-8h-3v-3h-31z"></path><path transform="translate(762,725)" d="M0,0h7v3c2.64,0.33 5.28,0.66 8,1v3h4v4h4v4h4v3c1.98,0.495 1.98,0.495 4,1v3c2.31,0.33 4.62,0.66 7,1v3h4v4h7v4h4v4h4v14h-4v8h-4v7c-1.49,0.495 -1.49,0.495 -3,1c-0.733,2.02 -0.733,2.02 -1,4h-3v7h-4v11h-4v8h-3v18h3c0.33,12.5 0.66,25.1 1,38h3v34h3c1.34,11.3 1.1,22.6 1,34h3c0.33,11.2 0.66,22.4 1,34h3c0.495,16.8 0.495,16.8 1,34h3v34h3c1.07,3.48 1.11,6.67 1.1,10.3c-0.00483,1.81 -0.00483,1.81 -0.00977,3.65c-0.0126,1.88 -0.0126,1.88 -0.0254,3.8c-0.00451,1.27 -0.00902,2.54 -0.0137,3.85c-0.0118,3.13 -0.0282,6.27 -0.0488,9.4h3c0.707,11 1.15,22 1,33h3l1,31h3c0.33,12.2 0.66,24.4 1,37h2c1.29,3.88 1.12,7.56 1.1,11.6c-0.00212,1.26 -0.00212,1.26 -0.00429,2.54c-0.0056,2.68 -0.0181,5.36 -0.0309,8.04c-0.00502,1.82 -0.00958,3.63 -0.0137,5.45c-0.011,4.45 -0.0283,8.91 -0.0488,13.4h-4v4h-4v4h-7v4h-4v4h-4v4h-3c-0.33,2.31 -0.66,4.62 -1,7h-3c-0.33,1.32 -0.66,2.64 -1,4h-3v3c-0.99,0.33 -1.98,0.66 -3,1c-0.33,0.99 -0.66,1.98 -1,3h-4v4h-3c-0.33,1.32 -0.66,2.64 -1,4h-3c-0.33,1.32 -0.66,2.64 -1,4h-3v3c-0.99,0.33 -1.98,0.66 -3,1c-0.33,0.99 -0.66,1.98 -1,3c-3.63,0.33 -7.26,0.66 -11,1v3h-3c-0.495,-1.49 -0.495,-1.49 -1,-3c-2.02,-0.733 -2.02,-0.733 -4,-1v-3h-3v-4h-4v-4c-1.32,-0.33 -2.64,-0.66 -4,-1v-3h-3v-4h-4v-4h-4c-0.495,-1.49 -0.495,-1.49 -1,-3c-0.99,-0.33 -1.98,-0.66 -3,-1v-3h-3v-4h-4v-4h-4v-4h-4v-3h-3v-4h-4v-4h-4v-4h-4v-52h3c0.33,-12.5 0.66,-25.1 1,-38h3c-0.0116,-0.574 -0.0232,-1.15 -0.0352,-1.74c-0.1,-9.44 0.488,-18.8 1.04,-28.3h3c-0.0116,-1.29 -0.0232,-2.58 -0.0352,-3.91c-0.00938,-1.72 -0.0185,-3.43 -0.0273,-5.15c-0.00838,-0.848 -0.0168,-1.7 -0.0254,-2.57c-0.0189,-4.91 0.255,-9.53 1.09,-14.4h3v-34h3c0.33,-11.2 0.66,-22.4 1,-34h3c0.33,-10.2 0.66,-20.5 1,-31h3c-0.0116,-0.909 -0.0232,-1.82 -0.0352,-2.75c-0.0656,-9.14 0.312,-18.1 1.04,-27.2h3c-0.00786,-1.51 -0.00786,-1.51 -0.0159,-3.06c-0.0181,-3.75 -0.0296,-7.5 -0.0391,-11.2c-0.00502,-1.62 -0.0118,-3.24 -0.0205,-4.87c-0.0122,-2.33 -0.0178,-4.67 -0.0222,-7c-0.00516,-0.723 -0.0103,-1.45 -0.0156,-2.19c-0.00037,-3.36 0.0642,-6.43 1.11,-9.64h2c0.33,-12.2 0.66,-24.4 1,-37h3c0.33,-10.2 0.66,-20.5 1,-31h3v-19h-3c-0.33,-3.3 -0.66,-6.6 -1,-10c-0.99,-0.33 -1.98,-0.66 -3,-1v-7h-4v-7c-1.32,-0.33 -2.64,-0.66 -4,-1v-4h-3c-0.33,-2.31 -0.66,-4.62 -1,-7c-1.49,-0.495 -1.49,-0.495 -3,-1v-7h-4v-11h4v-4h3c0.33,-1.32 0.66,-2.64 1,-4h3v-3h4v-4h4v-4h4v-3c2.31,-0.33 4.62,-0.66 7,-1c0.33,-1.32 0.66,-2.64 1,-4h3v-6c3.47,-0.495 3.47,-0.495 7,-1c0.33,-1.32 0.66,-2.64 1,-4h3v-3z"></path></g></g></svg>